# AST/ASF file generated using VICON BodyLanguage
# -----------------------------------------------
:version 1.10
:name VICON
:units
  mass 1.0
  length 0.45
  angle deg
:documentation
   .ast/.asf automatically generated from VICON data using
   VICON BodyBuilder and BodyLanguage model FoxedUp or BRILLIANT.MOD
:root
   order TX TY TZ RX RY RZ
   axis XYZ
   position 0 0 0  
   orientation 0 0 0 
:bonedata
  begin
     id 1 
     name lhipjoint
     direction 0.711131 -0.61297 0.344326 
     length 2.29162 
     axis 0 0 0  XYZ
  end
  begin
     id 2 
     name lfemur
     direction 0.34202 -0.939693 0  
     length 6.71424  
     axis 0 0 20  XYZ
    dof rx ry rz
    limits (-160.0 20.0)
           (-70.0 70.0)
           (-60.0 70.0)
  end
  begin
     id 3 
     name ltibia
     direction 0.34202 -0.939693 0   
     length 6.7087   
     axis 0 0 20   XYZ
    dof rx
    limits (-10.0 170.0)
  end
  begin
     id 4 
     name lfoot
     direction 0.0230374 -0.0632947 0.997729   
     length 1.56743   
     axis -90 7.62852e-016 20   XYZ
    dof rx rz
    limits (-45.0 90.0)
           (-70.0 20.0)
  end
  begin
     id 5 
     name ltoes
     direction 1.53585e-011 -4.21885e-011 1   
     length 0.802914   
     axis -90 7.62852e-016 20   XYZ
    dof rx
    limits (-90.0 20.0)
  end
  begin
     id 6 
     name rhipjoint
     direction -0.733192 -0.592884 0.333043   
     length 2.36925  
     axis 0 0 0  XYZ 
  end
  begin
     id 7 
     name rfemur
     direction -0.34202 -0.939693 0   
     length 6.67027   
     axis 0 0 -20   XYZ
    dof rx ry rz
    limits (-160.0 20.0)
           (-70.0 70.0)
           (-70.0 60.0)
  end
  begin
     id 8 
     name rtibia
     direction -0.34202 -0.939693 0   
     length 6.6862   
     axis 0 0 -20   XYZ
    dof rx
    limits (-10.0 170.0)
 end
 begin
     id 9 
     name rfoot
     direction -0.0949739 -0.260939 0.960672   
     length 1.67698  
     axis -90 -7.62852e-016 -20   XYZ
    dof rx rz
    limits (-45.0 90.0)
           (-20.0 70.0)
  end
  begin
     id 10 
     name rtoes
     direction -1.5353e-011 -4.21868e-011 1   
     length 0.846298   
     axis -90 -7.62852e-016 -20   XYZ
    dof rx
    limits (-90.0 20.0)
  end
  begin
     id 11 
     name lowerback
     direction -0.0206828 0.999785 -0.00109866   
     length 2.04382   
     axis 0 0 0   XYZ
    dof rx ry rz
    limits (-20.0 45.0)
           (-30.0 30.0)
           (-30.0 30.0)
  end
  begin
     id 12 
     name upperback
     direction -0.0105003 0.999727 -0.0208904   
     length 2.04538   
     axis 0 0 0   XYZ
    dof rx ry rz
    limits (-20.0 45.0)
           (-30.0 30.0)
           (-30.0 30.0)
  end
  begin
     id 13 
     name thorax
     direction -0.000416255 0.999808 -0.0196023   
     length 2.0399   
     axis 0 0 0   XYZ
    dof rx ry rz
    limits (-20.0 45.0)
           (-30.0 30.0)
           (-30.0 30.0)
  end
  begin
     id 14 
     name lowerneck
     direction 0.0627861 0.989205 0.13241   
     length 1.46207   
     axis 0 0 0   XYZ
    dof rx ry rz
    limits (-20.0 45.0)
           (-30.0 30.0)
           (-30.0 30.0)
  end
  begin
     id 15 
     name upperneck
     direction 0.00627179 0.994526 0.104303   
     length 1.41419   
     axis 0 0 0   XYZ
    dof rx ry rz
    limits (-20.0 45.0)
           (-30.0 30.0)
           (-30.0 30.0)
  end
  begin
     id 16
     name head
     direction -0.00443838 0.999688 0.0245968  
     length 1.50718  
     axis 0 0 0   XYZ
    dof rx ry rz
    limits (-20.0 45.0)
           (-30.0 30.0)
           (-30.0 30.0)
  end
  begin
     id 17 
     name lclavicle
     direction 0.758742 0.650995 -0.0227258  
     length 2.86888  
     axis 0 0 0   XYZ
    dof ry rz
    limits (-20.0 10.0)
           (0.0 20.0)
  end
  begin
     id 18 
     name lhumerus
     direction 1 -4.48962e-011 1.06664e-027   
     length 4.65776   
     axis -180 -30 -90   XYZ
    dof rx ry rz
    limits (-60.0 90.0)
           (-90.0 90.0)
           (-90.0 90.0)
  end
  begin
     id 19
     name lradius
     direction 1 -4.48968e-011 1.40404e-026   
     length 3.55539   
     axis -180 -30 -90   XYZ
    dof rx
    limits (-10.0 170.0)
  end
  begin
     id 20
     name lwrist
     direction 1 -4.48976e-011 3.32647e-026   
     length 1.77769   
     axis -2.20186e-014 90 90   XYZ
    dof ry
    limits (-180.0 0.0)
 end
  begin
     id 21 
     name lhand
     direction 1 -4.48982e-011 6.65293e-026   
     length 0.707264   
     axis -4.24514e-014 90 90   XYZ
    dof rx rz
    limits (-90.0 90.0)
           (-45.0 45.0)
  end
  begin
     id 22 
     name lfingers
     direction 1 -4.48966e-011 1.33059e-025   
     length 0.570215   
     axis -8.49028e-014 90 90   XYZ
    dof rx
    limits (0.0 90.0)
  end
  begin
     id 23
     name lthumb
     direction 0.707107 -6.3493e-011 0.707107   
     length 0.818718   
     axis -90 45 2.85299e-015   XYZ
    dof rx rz
    limits (-45.0 45.0)
           (-45.0 45.0)
  end
  begin
     id 24 
     name rclavicle
     direction -0.870343 0.482028 -0.100759   
     length 3.2251  
     axis 0 0 0   XYZ 
    dof ry rz
    limits (-10.0 20.0)
           (-20.0 0.0)
  end
  begin
     id 25 
     name rhumerus
     direction -1 -4.48974e-011 -9.45849e-028  
     length 4.71925   
     axis -180 30 90   XYZ
    dof rx ry rz
    limits (-90.0 60.0)
           (-90.0 90.0)
           (-90.0 90.0)
  end
  begin
     id 26 
     name rradius
     direction -1 -4.48965e-011 1.17607e-026   
     length 3.5699   
     axis -180 30 90   XYZ
    dof rx
    limits (-10.0 170.0)
  end
  begin
     id 27 
     name rwrist
     direction -1 -4.48968e-011 3.32647e-026   
     length 1.78495   
     axis -2.20186e-014 -90 -90   XYZ
    dof ry
    limits (-180.0 0.0)
  end
  begin
     id 28
     name rhand
     direction -1 -4.48995e-011 6.65293e-026   
     length 0.507757   
     axis -4.24514e-014 -90 -90   XYZ
    dof rx rz
    limits (-90.0 90.0)
           (-45.0 45.0)
  end
  begin
     id 29
     name rfingers
     direction -1 -4.48864e-011 1.33059e-025   
     length 0.409367   
     axis -8.49028e-014 -90 -90   XYZ
    dof rx
    limits (0.0 90.0)
  end
  begin
     id 30
     name rthumb
     direction -0.707107 -6.3494e-011 0.707107   
     length 0.587771   
     axis -90 -45 -2.85299e-015   XYZ
    dof rx rz
    limits (-45.0 45.0)
           (-45.0 45.0)
  end
:hierarchy
  begin
    root lhipjoint rhipjoint lowerback
    lhipjoint lfemur
    lfemur ltibia
    ltibia lfoot
    lfoot ltoes
    rhipjoint rfemur
    rfemur rtibia
    rtibia rfoot
    rfoot rtoes
    lowerback upperback
    upperback thorax
    thorax lowerneck lclavicle rclavicle
    lowerneck upperneck
    upperneck head
    lclavicle lhumerus
    lhumerus lradius
    lradius lwrist
    lwrist lhand lthumb
    lhand lfingers
    rclavicle rhumerus
    rhumerus rradius
    rradius rwrist
    rwrist rhand rthumb
    rhand rfingers
  end

#!OML:ASF E:\Steps\Project 1\Capture day 1\Session 2\Subject.ASF
:FULLY-SPECIFIED
:DEGREES
32
root -1.25928 19.6424 20.5644 -152.412 -2.49836 178.878
lowerback -28.625 -2.24078 -6.53118
upperback -1.74068 -1.53736 0.0330657
thorax 13.3301 -1.36565 2.94148
lowerneck -0.682944 -4.66071 -0.288543
upperneck 6.11917 -6.62172 3.51597
head 2.17875 -3.29876 1.0112
rclavicle -3.47873e-015 3.97569e-015
rhumerus -39.1868 -17.9527 -78.102
rradius 33.2401
rwrist -4.47286
rhand -2.99214 -57.4803
rfingers 7.12502
rthumb 22.7215 -86.1625
lclavicle -3.47873e-015 3.97569e-015
lhumerus -30.0338 0.978319 81.9758
lradius 21.3296
lwrist 1.07101
lhand -21.4119 -11.4143
lfingers 7.12502
lthumb 4.97668 18.5073
rfemur -26.3617 5.91947 20.1987
rtibia 9.99036
rfoot -20.2934 -5.06453
rtoes -17.2017
lfemur -25.0523 -6.92089 -22.7094
ltibia 9.13571
lfoot -7.89862 -2.48795
ltoes -10.6503
33
root -1.25911 19.6421 20.562 -152.427 -2.57822 178.904
lowerback -28.6106 -2.25084 -6.4907
upperback -1.74234 -1.56455 0.0397195
thorax 13.3242 -1.37516 2.91695
lowerneck -0.720543 -4.60792 -0.268792
upperneck 6.44769 -6.57538 3.45204
head 2.28912 -3.27775 0.984306
rclavicle 2.68359e-015 -1.86858e-014
rhumerus -39.2385 -17.9839 -78.0822
rradius 33.2036
rwrist -4.42284
rhand -3.08352 -57.2448
rfingers 7.12502
rthumb 22.6338 -85.9377
lclavicle 2.68359e-015 -1.86858e-014
lhumerus -30.029 0.953248 81.9728
lradius 21.2607
lwrist 1.06416
lhand -21.3642 -11.5339
lfingers 7.12502
lthumb 5.02266 18.3866
rfemur -26.2956 5.90779 20.2549
rtibia 9.93777
rfoot -18.9007 -5.35415
rtoes -23.1434
lfemur -25.068 -6.87694 -22.6822
ltibia 9.19056
lfoot -7.92182 -2.55866
ltoes -10.881
34
root -1.25838 19.642 20.5593 -152.436 -2.57787 178.875
lowerback -28.6157 -2.2651 -6.53191
upperback -1.72927 -1.56788 0.0446392
thorax 13.3425 -1.37911 2.94312
lowerneck -0.665575 -4.58201 -0.32631
upperneck 6.38474 -6.53709 3.49187
head 2.26158 -3.25986 1.00959
rclavicle 1.19271e-015 1.51076e-014
rhumerus -39.267 -18.0031 -78.0395
rradius 33.1699
rwrist -4.4544
rhand -3.1784 -57.1326
rfingers 7.12502
rthumb 22.5427 -85.8366
lclavicle 1.19271e-015 1.51076e-014
lhumerus -30.0586 0.993475 81.9917
lradius 21.3157
lwrist 1.02411
lhand -21.3374 -11.4544
lfingers 7.12502
lthumb 5.04855 18.4655
rfemur -26.2528 5.88129 20.2422
rtibia 9.91018
rfoot -20.1898 -5.17433
rtoes -17.0637
lfemur -25.0803 -6.92662 -22.7146
ltibia 9.27768
lfoot -7.98899 -2.43449
ltoes -11.6456
35
root -1.25885 19.6433 20.5561 -152.47 -2.57885 178.742
lowerback -28.5957 -2.32445 -6.66587
upperback -1.69469 -1.59549 0.0287057
thorax 13.3767 -1.39844 2.98818
lowerneck -0.558461 -4.58967 -0.363144
upperneck 6.1664 -6.53087 3.52157
head 2.17312 -3.25775 1.03025
rclavicle 1.59028e-015 5.56597e-015
rhumerus -39.2519 -17.9852 -78.03
rradius 33.1411
rwrist -4.52666
rhand -3.25581 -56.9258
rfingers 7.12502
rthumb 22.4684 -85.6388
lclavicle 1.59028e-015 5.56597e-015
lhumerus -30.0213 1.08628 81.9937
lradius 21.3135
lwrist 0.907299
lhand -21.305 -11.3259
lfingers 7.12502
lthumb 5.0799 18.5932
rfemur -26.1645 5.83525 20.0926
rtibia 9.85406
rfoot -18.6784 -5.40059
rtoes -22.757
lfemur -25.0786 -7.08923 -22.8531
ltibia 9.43807
lfoot -8.14507 -2.30782
ltoes -12.3885
36
root -1.26015 19.6435 20.5536 -152.496 -2.59471 178.69
lowerback -28.5457 -2.35801 -6.70326
upperback -1.69821 -1.63022 0.0266767
thorax 13.3537 -1.41526 2.99439
lowerneck -0.679271 -4.69298 -0.225621
upperneck 6.56064 -6.68526 3.25616
head 2.31113 -3.3363 0.912046
rclavicle -2.38542e-015 0
rhumerus -39.2804 -17.9286 -78.0265
rradius 33.1007
rwrist -4.53553
rhand -3.29089 -56.7123
rfingers 7.12502
rthumb 22.4348 -85.4293
lclavicle -2.38542e-015 0
lhumerus -30.0283 1.16432 81.9737
lradius 21.2953
lwrist 0.81464
lhand -21.2052 -11.2808
lfingers 7.12502
lthumb 5.17625 18.636
rfemur -26.0919 5.99139 19.9953
rtibia 9.8232
rfoot -20.1986 -5.37196
rtoes -16.6636
lfemur -25.0984 -7.17301 -22.9078
ltibia 9.57324
lfoot -8.25439 -2.33609
ltoes -12.1558
37
root -1.26156 19.6427 20.5528 -152.468 -2.53689 178.73
lowerback -28.549 -2.33514 -6.64598
upperback -1.72011 -1.62324 0.0286733
thorax 13.3287 -1.40929 2.96816
lowerneck -1.50736 -4.48147 -0.810258
upperneck 7.62539 -6.52037 3.92783
head 2.86778 -3.24409 1.20016
rclavicle -6.16232e-015 1.70955e-014
rhumerus -39.2942 -17.9731 -77.9788
rradius 32.9774
rwrist -4.48623
rhand -3.25524 -56.7018
rfingers 7.12502
rthumb 22.469 -85.4148
lclavicle -6.16232e-015 1.70955e-014
lhumerus -30.053 1.24145 81.9394
lradius 21.2935
lwrist 0.788258
lhand -21.2064 -11.3711
lfingers 7.12502
lthumb 5.17503 18.5457
rfemur -26.1409 6.23259 19.9738
rtibia 9.86717
rfoot -18.6952 -5.84315
rtoes -23.3352
lfemur -25.1764 -7.26419 -22.8533
ltibia 9.66642
lfoot -8.36424 -2.25643
ltoes -11.4303
38
root -1.2609 19.6422 20.5544 -152.401 -2.45896 178.736
lowerback -28.5834 -2.3338 -6.66903
upperback -1.74119 -1.6189 0.0396033
thorax 13.3202 -1.41037 2.99291
lowerneck -1.41401 -4.42512 -0.797676
upperneck 7.6001 -6.42357 3.72431
head 2.82964 -3.20151 1.1379
rclavicle 4.67144e-015 2.38542e-015
rhumerus -39.2589 -18.0999 -77.8884
rradius 32.7687
rwrist -4.41094
rhand -3.35594 -56.5909
rfingers 7.12502
rthumb 22.3723 -85.3155
lclavicle 4.67144e-015 2.38542e-015
lhumerus -30.0588 1.36407 81.9119
lradius 21.2734
lwrist 0.718743
lhand -21.27 -11.5706
lfingers 7.12502
lthumb 5.11363 18.3477
rfemur -26.2533 6.30758 19.9672
rtibia 9.91873
rfoot -20.1856 -5.71191
rtoes -18.2612
lfemur -25.3204 -7.23816 -22.8611
ltibia 9.81443
lfoot -8.47631 -2.25124
ltoes -11.4831
39
root -1.26051 19.6417 20.5528 -152.386 -2.46244 178.754
lowerback -28.5786 -2.34719 -6.67434
upperback -1.76824 -1.64319 0.0642206
thorax 13.2904 -1.4225 3.01328
lowerneck -1.69301 -4.41341 -0.942909
upperneck 8.21093 -6.44165 3.61531
head 3.09083 -3.21594 1.11505
rclavicle -1.12313e-014 -2.5842e-014
rhumerus -39.2958 -18.1199 -77.8407
rradius 32.7469
rwrist -4.24954
rhand -3.26403 -57.0846
rfingers 7.12502
rthumb 22.4605 -85.7985
lclavicle -1.12313e-014 -2.5842e-014
lhumerus -30.1351 1.43285 81.9179
lradius 21.2886
lwrist 0.668295
lhand -21.2932 -11.649
lfingers 7.12502
lthumb 5.09129 18.2698
rfemur -26.3051 6.21842 20.0238
rtibia 10.0062
rfoot -18.7494 -5.79252
rtoes -23.8292
lfemur -25.4098 -7.21943 -22.8427
ltibia 9.97614
lfoot -8.58236 -2.26835
ltoes -12.2658
40
root -1.25904 19.6393 20.5512 -152.325 -2.45121 178.802
lowerback -28.629 -2.33228 -6.64864
upperback -1.80026 -1.63775 0.0762239
thorax 13.2761 -1.42061 3.01284
lowerneck -1.83178 -4.31501 -0.934879
upperneck 8.72919 -6.33809 3.4222
head 3.28339 -3.17247 1.0467
rclavicle 4.17448e-015 -1.78906e-014
rhumerus -39.3643 -18.1791 -77.7873
rradius 32.6957
rwrist -4.19058
rhand -3.27213 -56.6796
rfingers 7.12502
rthumb 22.4528 -85.3944
lclavicle 4.17448e-015 -1.78906e-014
lhumerus -30.2223 1.32464 81.9511
lradius 21.3671
lwrist 0.737261
lhand -21.317 -11.6105
lfingers 7.12502
lthumb 5.06827 18.3089
rfemur -26.4448 6.13006 20.1088
rtibia 10.1481
rfoot -20.3474 -5.42769
rtoes -17.9387
lfemur -25.5582 -7.23333 -22.7672
ltibia 10.1494
lfoot -9.15487 -2.15115
ltoes -21.2961
41
root -1.25946 19.6416 20.5512 -152.408 -2.50832 178.777
lowerback -28.5147 -2.34113 -6.65215
upperback -1.79268 -1.64885 0.0595176
thorax 13.2333 -1.42235 2.99606
lowerneck -0.315765 -5.08662 -0.307111
upperneck 6.56703 -7.25215 3.57845
head 2.27858 -3.6248 1.02289
rclavicle 1.21259e-014 3.57812e-015
rhumerus -39.3992 -18.2196 -77.774
rradius 32.6465
rwrist -4.27219
rhand -3.40829 -56.2599
rfingers 7.12502
rthumb 22.3221 -84.9905
lclavicle 1.21259e-014 3.57812e-015
lhumerus -30.2768 1.12069 81.9885
lradius 21.4368
lwrist 0.877598
lhand -21.3372 -11.6778
lfingers 7.12502
lthumb 5.04881 18.242
rfemur -26.3532 6.16623 20.0731
rtibia 10.163
rfoot -18.8486 -5.76577
rtoes -23.7797
lfemur -25.5596 -7.45788 -22.7395
ltibia 10.3473
lfoot -8.61249 -2.14692
ltoes -11.7767
